<svg xmlns="http://www.w3.org/2000/svg" viewBox="0 0 2639.16 3161.44"><defs><style>.cls-1{fill:#52bf2e;}.cls-2{fill:#000072;}.cls-3{fill:#5f5f82;}.cls-4{opacity:0.2;}.cls-5{opacity:0.3;}.cls-6{fill:#fff;}.cls-7{fill:#3a3a3a;}.cls-8{fill:#e8e8e8;}.cls-9{opacity:0.5;}.cls-10{opacity:0.35;}.cls-11{fill:#30a010;}.cls-12{fill:#80d362;}.cls-13{fill:#686779;}.cls-14{fill:#b6f29e;}.cls-15{fill:#ff0068;}</style></defs><g id="Livello_2" data-name="Livello 2"><g id="Layer_1" data-name="Layer 1"><path class="cls-1" d="M1955.65,2523.14a8.16,8.16,0,0,1-7.68-5.29l-7.14-18.75a8.2,8.2,0,0,1,1.08-7.84l86.47-116.14a1817.82,1817.82,0,0,1,286.79-304.53,8.22,8.22,0,0,1,11.28.66l4.72,5a8.21,8.21,0,0,1-.42,11.68l-27.52,25.33a1803.92,1803.92,0,0,0-228.13,254l-112.84,152.57A8.22,8.22,0,0,1,1955.65,2523.14Z"/><path class="cls-2" d="M2320.46,2076.88l4.73,5-27.52,25.33a1807.37,1807.37,0,0,0-229.17,255.13l-112.85,152.57-7.14-18.75L2035,2380a1807.72,1807.72,0,0,1,285.49-303.15m0-16.44a16.41,16.41,0,0,0-10.59,3.87,1826.13,1826.13,0,0,0-288.08,305.9l-86.47,116.15a16.4,16.4,0,0,0-2.17,15.67l7.15,18.75a16.43,16.43,0,0,0,13.12,10.43,16.86,16.86,0,0,0,2.24.15,16.44,16.44,0,0,0,13.21-6.66l112.84-152.57a1795.28,1795.28,0,0,1,227.09-252.81l27.52-25.33a16.45,16.45,0,0,0,.83-23.37l-4.72-5a16.43,16.43,0,0,0-12-5.17Z"/><path class="cls-3" d="M1145.28,2337.75c-63.06-103.61-245.63-133.36-266.78,31.35-18.34,142.83,153.21,209,276,170.34C1198.88,2525.48,1223,2465.39,1145.28,2337.75Z"/><g class="cls-4"><path class="cls-2" d="M1154.51,2539.42c-122.78,38.61-294.33-27.48-276-170.3,7.73-60.08,36.88-94.29,73.94-108.44-.64,3.35.67,7.58-1.63,10.31-109.75,130.66,33.78,272.88,129,103.86,45.81,23.75,60.69,82.55,113.44,74.25C1203.31,2502.27,1183.09,2530.46,1154.51,2539.42Z"/></g><path class="cls-2" d="M1081.48,2566.69c-60,0-120.24-19.17-162.09-54.2-44.18-37-64.49-88.65-57.19-145.49,8.84-68.86,46.74-115.33,104-127.51,69.92-14.85,153,23.7,193.14,89.71,46.61,76.57,62.85,139.35,47,181.56a72.3,72.3,0,0,1-46.87,44.36A260.91,260.91,0,0,1,1081.48,2566.69Zm-84.59-297.48a114.47,114.47,0,0,0-23.87,2.44c-44,9.36-71,43.78-78.21,99.54-7.46,58.1,20.72,95.2,45.68,116.09,52.27,43.75,138.25,58.75,209.08,36.47,12.58-3.95,21.31-12.22,26-24.57,7-18.49,10.45-62.95-44.29-152.89h0C1103,2300,1047.54,2269.21,996.89,2269.21Z"/><g class="cls-5"><path class="cls-6" d="M1064.78,2322.65c-6.89-17.71-62.35-43.41-103.92-17.93-45.28,27.77,2.62,28.48,35,31.29C1029,2338.89,1071.67,2340.37,1064.78,2322.65Z"/></g><path class="cls-3" d="M1527.5,2556.35c-47.17,109.31-33.78,272.62-53.25,393-14.76,91-48.25,157.48-140.84,157.48-43.68,0-205,9.78-236.21-40.23-10.44-16.69-15.62-38.51-8.06-59.34,7.32-20.22,26.71-39.54,65-52.32-9.2-58.64-14.42-118.27-17.05-175.76-2.22-49-2.55-96.5-1.81-140.51,1.56-94.85,8.14-173.71,11.26-217.52Z"/><g class="cls-4"><path class="cls-2" d="M1527.5,2556.35c-47.17,109.31-33.78,272.62-53.25,393-14.76,91-48.25,157.48-140.84,157.48-43.68,0-205,9.78-236.21-40.23-10.44-16.69-15.62-38.51-8.06-59.34,13.36,13.43,44.75,31,118.56,36.94,150.82,12.08,204.61-18.12,210.74-164.63,5.67-136.19-179.55-101.22-283.15-240.9,1.56-94.85,8.14-173.71,11.26-217.52Z"/></g><path class="cls-2" d="M1277.68,3123.92c-89.19,0-169.25-8.25-194.42-48.62-14.54-23.32-18-50.11-9.62-73.5,6.32-17.56,22.32-41,62.28-57.6-29.61-202-13.79-415.59-7-507.92l1.2-16.32a16.44,16.44,0,1,1,32.79,2.36l-1.2,16.39c-6.91,93.22-23.08,311.53,8.65,513.68l2.16,13.75-13.2,4.39c-29.39,9.8-48.34,24.46-54.8,42.41-7.09,19.68,2.24,38,6.58,45,22.64,36.31,158,33.64,202.47,32.76,7.93-.16,14.65-.29,19.78-.29,112.67,0,126.9-106.83,137-282.77,5.19-90.85,10.55-184.79,42.07-257.78a16.44,16.44,0,0,1,30.18,13c-29.21,67.65-34.4,158.63-39.43,246.63-8.81,154.25-17.93,313.76-169.78,313.76-5,0-11.46.13-19.13.29C1302,3123.77,1289.74,3123.92,1277.68,3123.92Z"/><path class="cls-2" d="M1278.67,3022.67c-12.93,18.77-14.43,47.65.59,65.36,4.79,5.48,10.07,8.27,16.62,8.64,14.39,1.43,14.4,22.25.12,23.78-41.56,3.05-62-49.44-48-82.94,4.69-11.3,12.9-21.26,24.93-25.32a5.74,5.74,0,0,1,7.29,3.56c1,2.44-.48,4.87-1.58,6.92Z"/><path class="cls-2" d="M1172.58,3007.26c-11.76,12.64-15.61,29.21-12.81,46.59,2.16,14.77,9.55,32.58,23.49,37.6,14.44,4.29,9.74,25.51-5.08,23.32-39.88-8.43-52.58-60.45-38.67-94.17a45.06,45.06,0,0,1,19.18-20.79c4.53-2.45,14-6.86,16.22.89.71,2.59-.66,4.81-2.33,6.56Z"/><path class="cls-3" d="M2054.69,3077.84c-30.74,50.26-204,43.11-247.64,40.19-68.26-4.52-113.22-70.15-142.76-147.61a711.3,711.3,0,0,1-23.72-75.45c-23.5-91.15-34.31-197.92-36.12-205.93l353-213.31c-1.93,12,14.4,217,15.64,240.64,1.07,21.57,3.24,46.89,6,74,4.11,40.72,9.57,85.35,14.71,127.07,1.93,15.37,3.78,30.41,5.55,44.67,41.26,13.31,61.27,36.94,66.16,62.05C2069.08,3042.42,2064.72,3061.4,2054.69,3077.84Z"/><g class="cls-4"><path class="cls-2" d="M2054.68,3077.85c-30.74,50.26-204,43.11-247.64,40.19-68.26-4.52-113.22-70.15-142.77-147.62a708.23,708.23,0,0,1-23.71-75.45c-23.51-91.15-34.32-197.91-36.12-205.93l5.42-3.28c5.59,41,15.45,106.64,30.7,165.69a708.23,708.23,0,0,0,23.71,75.45c29.55,77.47,74.51,143.1,142.77,147.62,43.6,2.92,216.9,10.07,247.64-40.19a85.65,85.65,0,0,0,8.54-18.62,60.92,60.92,0,0,1,2.22,8.43C2069.06,3042.42,2064.7,3061.41,2054.68,3077.85Z"/></g><path class="cls-2" d="M1973.69,2478.37c-2.49,38.91,2.15,78.93,4.52,118,8.74,116.93,24.09,246.49,36.87,363.75l-10.89-13.2c42.74,12.52,83.2,48.05,78.35,97.38-2.3,23.48-12.73,47.91-32.77,60.93-18.6,12.27-38.52,17.45-59.27,21.89-39.31,7.64-78.15,9.33-116.86,9.65-40.19-1.24-83.46,3.5-120.1-17.47-113.93-63.3-157.55-307.2-157.12-428.5-1.16-10.3,13-13.63,16.07-3.51,2.19,7.87,4.81,20.61,6.59,28.71,23.8,107.38,52,312.79,151.14,373.49,15.27,8.56,29,11.7,47.25,12.34,18.66,1.06,37.44,1.62,56.15,1.68,37.34,0,75-1.59,110.48-8.44,19.79-4.5,43-9.09,56.11-24.74,26.95-43-1.44-79.91-45.82-93.13l-9.57-3.24c-5.93-43.77-10.82-87.65-15.66-131.47-7.2-71.58-17.45-172.79-23.23-243.58-2.6-42-8.06-83.42-4.69-125.81,3.56-21.77,35.78-17.12,32.45,5.28Z"/><path class="cls-7" d="M1871.13,3019.3c36.14,14.36,36.87,66.76,13.24,93.19-8.56,10-22.9,16.63-36.28,15.07a12,12,0,0,1,.94-23.85c14-1.17,22.36-15.33,25.38-28.71,3.51-15.39-.36-32.2-9-45.22l-1.25-2.45c-2.46-4.4,2.33-9.81,7-8Z"/><path class="cls-7" d="M1976.35,3007.58c39.77,11.21,40.68,65.05,22.05,95.09-6.32,13-39.4,37.22-46.24,13.53a12,12,0,0,1,8.67-13.53c14-5,21.33-22.82,23.5-37.6,2.79-17.37-1.06-33.94-12.82-46.59-5-4.35-1.85-12.2,4.84-10.9Z"/><path class="cls-6" d="M1954.65,2523.72a296.5,296.5,0,0,1-46.56,67.81c-8,8.71-17.1,17.83-27.29,27.12-70.68,64.35-193.31,135.53-354.2,130-173.79-6-367.56-54.32-420.94-214.92-1.44-4.28-2.75-8.55-4-12.87-14.75-50.3-18.12-101.05-15.08-152.3,4-67.43,19.11-135.78,34.19-205,17.14-78.74,34.2-158.67,34.73-240l394.39-230.13,162.57-94.89C1841.76,1802.12,2087.43,2258.86,1954.65,2523.72Z"/><g class="cls-4"><path class="cls-2" d="M1880.8,2618.65c-70.68,64.35-193.31,135.53-354.2,130-173.79-6-367.56-54.32-420.94-214.92-1.44-4.28-2.75-8.55-4-12.87-14.75-50.3-18.12-101.05-15.08-152.3,6.25,32.35,46,183.58,242.22,194.8,227.71,13.06,220.19-272.88,186.37-329.47-31.36-52.43-312.29,110-394.4-70.35,17.14-78.74,34.2-158.67,34.73-240l394.39-230.13,250.07,583Z"/></g><path class="cls-2" d="M1158.69,2635.13c-49.53-35.6-73.78-96.28-83.76-154.94-27.48-158.52,35.06-313.2,56.42-467.75a803.41,803.41,0,0,0,7.74-89,16.44,16.44,0,0,1,32.87.22c.44,62.24-8.84,124.12-20.88,184.75-34.56,170.77-95.89,361.59,19.3,515.11,5.5,7.42-4.16,17.25-11.69,11.56Z"/><path class="cls-2" d="M1726.37,1589.76c157.73,247.3,437.76,775.57,181,1028.06-77.51,75.89-179.11,126.08-286.32,141.95-68,9.74-137.9,7.3-203.87-12.61a8.32,8.32,0,0,1,2.44-16.26c65.85-1.46,131.45,6.4,196.44-4.18,111.08-17.48,217.72-74,290.18-160.58,50.63-62.55,68.45-144.6,68.06-224-6.4-255.7-145.48-519-275.7-734.76-10.81-17.68,15-35.92,27.75-17.62Z"/><path class="cls-3" d="M1506.34,691.08C1363,658.69,1332.45,585.91,1333.72,526.86c1.61-74.6,22.76-169.15,111.58-209.12,126.58-57,266.19-1.65,292.48,133.81,15.71,80.94-7.37,144.7-36.6,189.77C1668.35,692,1612.58,715.08,1506.34,691.08Z"/><g class="cls-5"><path class="cls-6" d="M1337.52,597.64c-1.5-80.32,16.1-192.8,117-238.17C1560,312,1674.13,339,1730.3,423.38c-39-114.71-167.6-158.46-285-105.64C1323.65,372.5,1329,529.6,1337.52,597.64Z"/></g><path class="cls-2" d="M1328.94,595.22c-23-75-9.6-175.61,38.87-238.69,26.44-34.51,65.85-56.73,107.31-68.21,105.09-31.26,225.33,12.47,266.63,118.75,22.87,59.22,23.19,126.13,1.8,185.67-14.22,39.68-37.82,75.23-66.6,105.15a16.44,16.44,0,0,1-23.69-22.79c39-40.2,65.89-91.55,71.85-147.22,9.56-95.53-33.7-186.14-132.11-210-52.52-12.75-111.8-1.92-158.24,25.21-47.33,29-71.41,80.88-80.2,135.58-5.77,37.2-6.25,75.22-9.3,114.57-.55,9-13.67,10.56-16.32,1.94Z"/><path class="cls-3" d="M826.34,904.67S667,715.49,515.83,798C394,864.41,353.71,1009.08,445.77,1111.86c118.44,132.22,282,73,282,73"/><g class="cls-5"><path class="cls-6" d="M434.52,1098.22c-44.66-98.9,2-214.49,108.5-272.57C631,777.69,721.53,818,784.3,863,727,812.62,619.48,741.41,515.82,798,399.27,861.51,357.36,996.66,434.52,1098.22Z"/></g><path class="cls-2" d="M641.08,1214.48c-58.36,0-140.13-16.38-207.55-91.66-44-49.09-62.33-110.21-51.67-172.08,11.89-69,57.85-130,126.09-167.22C633.88,714.83,763.2,819,813,866.92a16.44,16.44,0,0,1-22.82,23.68c-44.52-42.93-159.62-136.48-266.43-78.22-59.38,32.38-99.27,84.85-109.44,143.94-8.92,51.77,6.62,103.11,43.76,144.57,70.1,78.27,156.61,86,216.85,78.67a16.44,16.44,0,0,1,4,32.64A313.51,313.51,0,0,1,641.08,1214.48Z"/><path class="cls-6" d="M2073.91,1471.06c-36.62,77.18-97.64,140.75-166,192.82q-19.11,14.55-38.87,27.9c-66.74,45.29-137.18,80.59-196.81,107.63-302,137-788.58,169.4-936.56-32.22a328.44,328.44,0,0,1-41.22-73.72c-28.81-72.82-24-141.33-38-219C629.74,1327,567.48,1147.8,658,962.71c0,0,27.9-76.6,91.39-141.74-60.65-12.86-99.32-66-97.64-96,5.06-89.67,226.89-21.45,292-68.38C865.7,618.45,821.9,485.43,914.16,480.7c127.39,41.06,218.83,37.77,299.62,42.66,78.58,5.79,101.88,6.53,124.23,5.59,443.18,68.71,587.79,314.5,708.9,550.72C2128.2,1238.25,2123.26,1367,2073.91,1471.06Z"/><path class="cls-8" d="M2073.91,1471.06c-36.62,77.18-97.64,140.75-166,192.82q-19.11,14.55-38.87,27.9c-17.18-160.43-37.65-358.1-37.65-358.1S1927.81,1525.55,2073.91,1471.06Z"/><g class="cls-4"><path class="cls-2" d="M1907.88,1663.88c-77.46,59-164.34,103.15-235.68,135.53-302,137-788.58,169.4-936.56-32.22a328.44,328.44,0,0,1-41.22-73.72s202.14,208,642,80.15c131.81-38.32,230.39-148.29,255.53-283.23l47-252.46Z"/></g><path class="cls-2" d="M1146,1926.72c-202.28,0-352.72-53.19-423.62-149.79-58-79.08-65-148.45-72.28-221.89-2.5-25.1-5.09-51-9.9-77.66-4.17-23.05-9.16-46.66-14.46-71.66-28.65-135.39-61.13-288.81,17.14-449.49,3.13-8.31,26.89-68.73,77-127.35-51.37-21.5-86.55-69.62-84.57-104.88,3.79-67.56,92.41-66.45,170.59-65.48,37.41.46,75.76,1,102.84-5.13-42.58-34.61-70.33-93-61.33-137.17,6.37-31.19,30.38-50.12,65.88-51.93a16.51,16.51,0,0,1,5.88.77c103.93,33.51,183.48,36.89,253.66,39.87,14.51.62,28.22,1.2,41.91,2,80,5.88,101.64,6.46,122.55,5.58a16.39,16.39,0,0,1,3.21.18c203,31.47,361.33,102.37,483.9,216.75,108.6,101.36,176.68,224.88,237.1,342.72,67.62,131.89,82.22,255.24,43.37,366.61-50.86,145.81-190.19,268.67-425.94,375.6-155,70.31-354.21,112.3-532.82,112.32ZM780.15,691.21c-65.62,0-110.29,4.8-112,34.63-1.16,20.74,30.89,67.66,84.63,79a16.43,16.43,0,0,1,8.36,27.55c-60.08,61.65-87.44,135.18-87.71,135.92-.2.53-.43,1.07-.68,1.58-73.75,150.77-42.46,298.57-14.86,429,5.34,25.25,10.39,49.09,14.64,72.62,5,27.9,7.7,54.51,10.26,80.25,7.16,71.83,13.35,133.86,66.07,205.7,137.29,187,605.41,168.09,916.51,27l6.79,15-6.79-15c227.12-103,360.74-219.62,408.48-356.49,35.77-102.55,21.77-217.2-41.59-340.78C1900.2,829.56,1756.71,611,1337.09,545.45c-21.74.84-45,.15-124.5-5.69-13.18-.8-26.75-1.37-41.11-2-71.59-3-152.64-6.49-259.32-40.46-18.69,1.66-29.33,10-32.48,25.47-7,34.48,24.49,96.14,71.32,119a16.45,16.45,0,0,1,2.41,28.12c-31.88,23-88.22,22.28-147.87,21.52C796.78,691.28,788.3,691.21,780.15,691.21Z"/><path class="cls-3" d="M1475.59,1405.75s-169.12,44.78-216.19-152.36S1250,1026.66,1346.46,992s277.78-7.31,353.71,36.91,130.57,156.53,124.77,209.44c-4.75,43.39-59.71,91.13-155.44,123.54S1515,1401.39,1475.59,1405.75Z"/><path class="cls-3" d="M1005.38,1549.85s109.65-58.27,38.16-217.79-105.45-160-172.41-132.93-147.84,141-165.76,211.12,8.35,175.64,37.11,208.77c23.58,27.17,75.36,30.93,140.86,2.77S982.8,1567.57,1005.38,1549.85Z"/><path class="cls-3" d="M1557.33,759.71c1.21-15.44-126.27-110.6-204.49-33.33-28.66,28.3-6.88,55.32,17.88,54.28,23.57-1,52.24-17.16,81.64-20C1509.69,755.18,1556.13,775.14,1557.33,759.71Z"/><path class="cls-3" d="M726.74,1144.46c-10.82-6.85-10.68-138.44,79.25-152,33-5,40,22.85,27.1,38.74-12.33,15.13-37.25,26.1-53.69,44.18C747.35,1110.66,737.57,1151.31,726.74,1144.46Z"/><path class="cls-6" d="M1311,1425c27.14,40.91,1.27,78.74-41.18,90.18-42.29,11.4-73.66-23.17-81.17-36.15,0,0,25.18,79.75-37.87,78.4A57.12,57.12,0,0,1,1095.4,1498s-59.08-62,55.86-109.77S1311,1425,1311,1425Z"/><g class="cls-4"><path class="cls-2" d="M1317.74,1437.63c14.78,35.84-9.91,67.32-48,77.56-42.27,11.38-73.69-23.19-81.18-36.16,0,0,25.2,79.74-37.88,78.38-21.92-.46-45.09-15.17-52.72-39.92a71.06,71.06,0,0,0,19,3.12c80,1.69,48.08-99.52,48.08-99.52,9.52,16.43,49.35,60.32,103,45.88C1288.5,1461.47,1305.9,1451.13,1317.74,1437.63Z"/></g><path class="cls-2" d="M1316.09,1421.58c40.48,48.94-5.17,105.77-60.52,108.86-32.06,1.38-61.73-18.23-77.63-45.24l22.06-10.89a93.84,93.84,0,0,1,7.14,27.1c8.7,60.18-61.79,92.74-103.1,49-13.54-14.09-19.56-35-14.8-52.76a6.32,6.32,0,0,1,12.26.23c5.4,31.45,39.74,61.4,68.31,38.08,12.13-10.09,12.72-27.61,9.81-42.5a93.21,93.21,0,0,0-2.86-11.18,12.26,12.26,0,0,1,22.51-9.49,80.84,80.84,0,0,0,15.35,16.12c11.51,9.3,25.36,15.63,40,15.37,21.35-.9,45.53-13.15,54.46-32.32,6.15-12.69,4.45-28.8-3.3-43.61-3.43-6.52,5.64-12.47,10.27-6.82Z"/><path class="cls-2" d="M1162.18,1392.05c4.35,22.06,14.9,42.61,25.79,62.19,3.7,6.5,7.64,13.12,11.59,19.13a12.4,12.4,0,1,1-20.7,13.65c-4-8.08-6.22-16.67-9-24.92-6.9-22.63-13.18-45.8-12.8-69.74.06-3.11,4.74-3.41,5.17-.31Z"/><path class="cls-2" d="M1234.73,1350.1c20,46.37-53.23,101.42-53.23,101.42s-81.8,4-96.92-38.92c-8.61-24.45,57.67-52.09,57.67-52.09S1224.46,1326.3,1234.73,1350.1Z"/><g class="cls-9"><path class="cls-6" d="M1186.29,1364.77c5.18,12-12.88,25.89-27.89,32.13s-37.72,9.33-42.9-2.68c-2.66-6.16,32.74-20.89,32.74-20.89S1183.63,1358.61,1186.29,1364.77Z"/></g><ellipse class="cls-2" cx="1439.71" cy="1191.91" rx="112.93" ry="130.86" transform="translate(-402.03 873.47) rotate(-29.81)"/><ellipse class="cls-6" cx="1462.77" cy="1160.93" rx="36.35" ry="48.07" transform="translate(-317.7 597.55) rotate(-20.88)"/><g class="cls-10"><ellipse class="cls-6" cx="1434.32" cy="1259.85" rx="21.51" ry="36.06" transform="translate(-470.74 1383.22) rotate(-45)"/></g><ellipse class="cls-2" cx="905.24" cy="1402.41" rx="108.02" ry="125.16" transform="translate(-577.41 635.61) rotate(-29.81)"/><ellipse class="cls-6" cx="927.29" cy="1372.77" rx="34.77" ry="45.98" transform="translate(-428.36 420.62) rotate(-20.88)"/><g class="cls-10"><ellipse class="cls-6" cx="900.08" cy="1467.39" rx="20.58" ry="34.49" transform="translate(-773.97 1066.24) rotate(-45)"/></g><path class="cls-11" d="M1995.18,3120.76s-54.57,24.25-193,24.25-193-24.25-193-24.25V89.4s97.09-21.46,193-21.46,193,21.46,193,21.46Z"/><path class="cls-11" d="M1995.17,89.4V3120.75s-43,19.11-149.3,23.38c-13.52.58-28,.87-43.64.87-21.82,0-41.59-.62-59.34-1.65-25.11-1.39-46.28-3.65-63.83-6.2-12.2-1.77-22.64-3.7-31.43-5.55-26.55-5.63-38.35-10.85-38.35-10.85V89.4s14.72-3.25,38.35-7.23c9.2-1.52,19.8-3.21,31.43-4.81,19-2.67,40.81-5.22,63.83-7,19.23-1.48,39.32-2.42,59.34-2.42,14.63,0,29.3.49,43.64,1.36A1067.65,1067.65,0,0,1,1995.17,89.4Z"/><path class="cls-1" d="M1845.87,69.31V3144.13c-13.52.58-28,.87-43.64.87-21.82,0-41.59-.62-59.34-1.65-25.11-1.39-46.28-3.65-63.83-6.2-12.2-1.77-22.64-3.7-31.43-5.55V82.17c9.2-1.52,19.8-3.21,31.43-4.81,19-2.67,40.81-5.22,63.83-7,19.23-1.48,39.32-2.42,59.34-2.42C1816.86,68,1831.53,68.44,1845.87,69.31Z"/><path class="cls-12" d="M1742.89,70.37v3073c-25.11-1.39-46.28-3.65-63.83-6.2V77.36C1698.09,74.69,1719.87,72.14,1742.89,70.37Z"/><path class="cls-2" d="M1802.23,3161.44c-140.26,0-197.27-24.61-199.63-25.66a16.42,16.42,0,0,1-9.76-15V89.4a16.44,16.44,0,0,1,12.89-16.05c4-.89,100-21.85,196.5-21.85s192.46,21,196.5,21.85a16.44,16.44,0,0,1,12.89,16.05V3120.76a16.43,16.43,0,0,1-9.76,15C1999.5,3136.83,1942.49,3161.44,1802.23,3161.44Zm-176.52-52.35c20.81,6.35,76,19.48,176.52,19.48s155.64-13.12,176.51-19.48V102.84C1949.5,97.2,1875,84.38,1802.23,84.38s-147.29,12.81-176.52,18.46Zm369.47,11.67h0Z"/><path class="cls-3" d="M1819.36,1892.58c.21,27.49-6.53,54.57-18.94,76.19-32.38,56.3-87.25,64.47-147.12,102.94C1557,2133.6,1344,2252.82,1201.86,2193.27c-160.47-67.19-65.25-280.48-65.25-280.48,13.93-.53,27.32-1.39,40.15-2.46,103-8.63,172.31-33.29,230-60.49h0a.12.12,0,0,0,.08,0l.74-.37c.2-.09.41-.17.66-.29,87.57-41.51,148.35-88.52,260.17-92.92,94.19-3.66,139.44,52,149,112.6A158.11,158.11,0,0,1,1819.36,1892.58Z"/><g class="cls-5"><path class="cls-6" d="M1817.39,1868.82c-93.12-163.11-385.88-30.53-409.14-19.68,87.57-41.51,148.35-88.52,260.17-92.92C1762.61,1752.56,1807.86,1808.21,1817.39,1868.82Z"/></g><g class="cls-4"><path class="cls-2" d="M1819.36,1892.58c.21,27.49-6.53,54.57-18.94,76.19-32.38,56.3-87.25,64.47-147.12,102.94C1557,2133.6,1344,2252.82,1201.86,2193.27c-160.47-67.19-65.25-280.48-65.25-280.48,13.93-.53,27.32-1.39,40.15-2.46-5.39,21.2-25.44,113.18,19.11,159.2,75,77.43,238.06,61.65,346.88-10.89C1635.71,1996.63,1801.84,1989.72,1819.36,1892.58Z"/></g><path class="cls-2" d="M1289.53,2225.9c-33.07,0-64.83-5.24-94-17.45-43.66-18.29-74-48.2-90.11-88.92-36.77-92.81,14-208.54,16.18-213.42l4.16-9.32,10.2-.41c160.4-6.35,244.84-50.51,319.34-89.46,62.5-32.69,121.54-63.56,212.49-67.12,65.21-2.53,116.81,22,145.32,69.13,29.63,49,30.26,118.07,1.54,168-24.52,42.65-60.6,60.48-98.8,79.36-17.36,8.58-35.31,17.45-53.65,29.24C1572.71,2143.05,1420.93,2225.9,1289.53,2225.9Zm-141.62-297.15c-10.53,27.8-38.15,112.64-11.88,178.78,12.75,32.12,37,55.87,72.2,70.59,136.12,57,350.39-65.1,436.19-120.24,19.9-12.78,38.69-22.07,56.86-31.05,36.5-18,65.33-32.28,84.87-66.28,22.66-39.41,22.18-96-1.17-134.6-22.36-37-62.49-55.39-115.9-53.3-83.57,3.27-136.85,31.14-198.55,63.4C1394.62,1875.74,1308.81,1920.62,1147.91,1928.75Z"/><path class="cls-3" d="M2151,2070.39a231.84,231.84,0,0,1-23.59,71.59c-72.16,139.89-352.31,111-323.5-91.27a124.3,124.3,0,0,1,15.41-44.67c38.76-68.1,134.59-98.38,173.55-120,3.74-59.54,2.3-135.28,2.3-135.28S2177.76,1898.16,2151,2070.39Z"/><g class="cls-4"><path class="cls-2" d="M2151,2070.39a231.84,231.84,0,0,1-23.59,71.59c-72.16,139.89-352.31,111-323.5-91.27a124.3,124.3,0,0,1,15.41-44.67c5.06,35.71,23.67,104.09,91.77,142.52C1987.28,2191.59,2104,2169.23,2151,2070.39Z"/></g><path class="cls-2" d="M1968.31,2245a219.79,219.79,0,0,1-66.53-10.05c-65.07-20.75-129.23-80.65-114.15-186.53,13-91.46,109.27-135.57,166.77-161.93,8.46-3.88,16.11-7.39,22.6-10.61,3-56.63,1.76-124,1.75-124.72l-.66-35.23,27.42,22.13c2.49,2,61.59,50.14,108.5,124.27,63.49,100.32,73.17,199.64,28,287.23C2108.39,2214.72,2036.88,2245,1968.31,2245Zm43.58-456.4c0,27.4-.53,65.23-2.61,98.56l-.56,9-7.88,4.36c-8.86,4.91-19.93,10-32.74,15.85-54.72,25.09-137.42,63-147.92,136.69-14.92,104.77,59.08,140.2,91.59,150.57,68.27,21.77,164.57,1.55,201-69.14C2188.05,1988.51,2068.47,1844.92,2011.89,1788.56Z"/><path class="cls-13" d="M1992.88,1886.1s37.92-10.58,58.32-27.52"/><path class="cls-2" d="M1988.46,1870.27c19.48-3.12,40.9-8.28,57.87-18.25,8.26-4.89,16.8,6.1,10.12,12.88-17.34,17-37.61,27.54-59.46,37.16-23.42,8.24-32.94-27.19-8.53-31.79Z"/><path class="cls-2" d="M1690.32,1791.72c29.84-7.69,60.73-9.4,90.61-.29,14.71,5.6,46.81,16.9,33.58,38a16.55,16.55,0,0,1-25.13,2.15c-11.38-11.15-26.73-18-42.7-21.49a167.74,167.74,0,0,0-53.22-2.28c-10,1.13-12.81-13.4-3.14-16.09Z"/><path class="cls-2" d="M1728.89,1878.9c25.82-8.87,53.58-13.64,79.9-2.2,14.51,6.8,39.72,28.82,20.1,44a16.5,16.5,0,0,1-22.93-4.28c-3-5.39-5.49-10.52-11-14.48-17.09-11.4-41.84-10.5-61.71-7.19-9.8,1.73-13.59-12.36-4.31-15.81Z"/><path class="cls-2" d="M1964.41,2158.53c-16,25.64-40.39,46.14-70.13,53.85-10.2,2.95-20.94,3.38-31.61,3.22a16.52,16.52,0,0,1-16.26-16.76c0-10.38,10.06-18.14,20.13-15.89,31.66,7,64.41-10,84.61-34,6.52-7.58,18.42,1.06,13.26,9.59Z"/><path class="cls-2" d="M1892.6,2056.15c-22.54,4.95-42.95,19.49-56.94,37.67l-3.61,5.19c-5.2,7.22-8.87,15.49-12.7,23.48a16.51,16.51,0,1,1-29.62-14.58c3.06-5.13,6.43-10.07,9.89-14.9a143.19,143.19,0,0,1,33.64-32.59,124,124,0,0,1,42.37-18.52c7.51-1.1,23.11-6.49,24.37,5.68a8.29,8.29,0,0,1-7.4,8.57Z"/><path class="cls-1" d="M2042.88,2418.35c-1.93,46.64-47.71,62.34-47.71,62.34s-66.89,19.11-192.94,19.11-193-19.11-193-19.11-45.78-15.7-47.71-62.34c-1.89-45.9,47.71-62.38,47.71-62.38s84.1,13.78,193,13.78S1995.17,2356,1995.17,2356,2044.77,2372.45,2042.88,2418.35Z"/><path class="cls-1" d="M2042.88,2418.35c-1.93,46.64-47.71,62.34-47.71,62.34s-66.89,19.11-192.94,19.11-193-19.11-193-19.11-45.78-15.7-47.71-62.34c-1.89-45.9,47.71-62.38,47.71-62.38s84.1,13.78,193,13.78S1995.17,2356,1995.17,2356,2044.77,2372.45,2042.88,2418.35Z"/><path class="cls-12" d="M2025.66,2375.32a1239.79,1239.79,0,0,1-446.87,0,86.54,86.54,0,0,1,30.49-19.35s84.09,13.76,193,13.76S1995.17,2356,1995.17,2356A86.45,86.45,0,0,1,2025.66,2375.32Z"/><path class="cls-11" d="M2042.88,2418.35c-1.93,46.64-47.71,62.34-47.71,62.34s-66.9,19.11-192.94,19.11-193-19.11-193-19.11-45.78-15.7-47.71-62.34a54.46,54.46,0,0,1,7.65-30.78c13.43,25,40.06,34.15,40.06,34.15s66.91,19.11,193,19.11,192.94-19.11,192.94-19.11,26.63-9.12,40.07-34.15A54.54,54.54,0,0,1,2042.88,2418.35Z"/><path class="cls-2" d="M1802.23,2516.24c-126.9,0-194.64-18.94-197.46-19.74l-.82-.26c-2.3-.79-56.43-20-58.8-77.21-2.37-57.62,56.45-77.83,58.95-78.66a16.45,16.45,0,0,1,7.84-.63c.83.14,84.18,13.58,190.29,13.58s189.45-13.44,190.28-13.58a16.54,16.54,0,0,1,7.84.63c2.51.83,61.32,21,59,78.66h0c-2.37,57.21-56.5,76.42-58.81,77.21l-.81.26C1996.87,2497.3,1929.13,2516.24,1802.23,2516.24Zm-188-51.23c6.08,1.63,71.57,18.35,188,18.35,116.25,0,181.73-16.69,188-18.35,3.85-1.47,34.9-14.31,36.27-47.34,1.12-27.23-24-40.75-33.15-44.78-19.09,2.87-95.08,13.3-191.08,13.3s-172-10.43-191.09-13.3c-9.25,4-34.27,17.52-33.14,44.78C1579.37,2450.77,1610.55,2463.6,1614.26,2465Zm428.62-46.66h0Z"/><path class="cls-1" d="M2042.88,1646.72c-1.93,46.65-47.71,62.35-47.71,62.35s-66.89,19.1-192.94,19.1-193-19.1-193-19.1-45.78-15.7-47.71-62.35c-1.89-45.9,47.71-62.38,47.71-62.38s84.1,13.79,193,13.79,192.94-13.79,192.94-13.79S2044.77,1600.82,2042.88,1646.72Z"/><path class="cls-12" d="M2031.58,1610.54c-49.27,6.24-132.45,18.57-229.35,18.57s-180.08-12.33-229.36-18.57c14.06-18.74,36.41-26.18,36.41-26.18s84.09,13.77,193,13.77,192.94-13.77,192.94-13.77S2017.53,1591.8,2031.58,1610.54Z"/><path class="cls-11" d="M2042.88,1646.74c-1.93,46.65-47.71,62.34-47.71,62.34s-66.9,19.11-192.94,19.11-193-19.11-193-19.11-45.78-15.69-47.71-62.34a58.55,58.55,0,0,1,.17-7.19,90.38,90.38,0,0,0,30,19.15s73,20.84,210.53,20.84,210.53-20.84,210.53-20.84a90.38,90.38,0,0,0,30-19.15A60.65,60.65,0,0,1,2042.88,1646.74Z"/><path class="cls-2" d="M1802.23,1744.61c-126.9,0-194.64-18.93-197.46-19.74-.28-.08-.55-.16-.82-.26-2.3-.79-56.43-20-58.8-77.21-2.37-57.61,56.45-77.83,58.95-78.66a16.44,16.44,0,0,1,7.84-.62c.83.13,84.18,13.57,190.29,13.57s189.45-13.44,190.28-13.57a16.67,16.67,0,0,1,7.84.62c2.51.83,61.32,21,59,78.66h0c-2.37,57.21-56.5,76.43-58.81,77.21-.27.1-.54.18-.81.26C1996.87,1725.68,1929.13,1744.61,1802.23,1744.61Zm-188-51.23c6.08,1.63,71.57,18.36,188,18.36,116.25,0,181.73-16.69,188-18.35,3.85-1.47,34.9-14.32,36.27-47.35,1.12-27.22-24-40.74-33.15-44.77-19.09,2.87-95.08,13.3-191.08,13.3s-172-10.44-191.09-13.31c-9.25,4-34.27,17.53-33.14,44.79C1579.37,1679.14,1610.55,1692,1614.26,1693.38Zm428.62-46.66h0Z"/><path class="cls-1" d="M2042.88,875.1c-1.93,46.64-47.71,62.34-47.71,62.34s-79.46,9.93-192.94,9.93-193-9.93-193-9.93-45.78-15.7-47.71-62.34c-1.89-45.91,47.71-62.39,47.71-62.39l193,1.46,192.94-1.46S2044.77,829.19,2042.88,875.1Z"/><path class="cls-12" d="M2035,844l-232.8,1.93L1569.42,844c13.52-22.52,39.86-31.28,39.86-31.28l193,1.48,192.94-1.48S2021.51,821.47,2035,844Z"/><path class="cls-11" d="M2042.88,875.1c-1.93,46.64-47.71,62.34-47.71,62.34s-79.44,9.94-192.94,9.94-193-9.94-193-9.94-45.78-15.7-47.71-62.34a56.11,56.11,0,0,1,.5-10.32,90.24,90.24,0,0,0,23.79,13.69S1675,889.6,1802.23,889.6s216.36-11.13,216.36-11.13a90.37,90.37,0,0,0,23.8-13.69A56.13,56.13,0,0,1,2042.88,875.1Z"/><path class="cls-2" d="M1802.23,963.81c-113.21,0-191.7-9.65-195-10.06A16.89,16.89,0,0,1,1604,953c-2.3-.79-56.43-20-58.8-77.21-2.37-57.62,56.45-77.83,58.95-78.67a16.48,16.48,0,0,1,5.3-.83l192.95,1.45,192.7-1.45a16.88,16.88,0,0,1,5.3.83c2.51.84,61.32,21,59,78.66h0c-2.37,57.21-56.5,76.42-58.81,77.21a16.89,16.89,0,0,1-3.29.76C1993.93,954.16,1915.43,963.81,1802.23,963.81Zm-189-42.45c12.78,1.47,87.57,9.57,189,9.57s176.18-8.1,189-9.57c6.56-2.73,34-16,35.26-46.94,1.17-28.39-26.14-41.88-34.24-45.25l-189.87,1.44-190.12-1.44c-8.16,3.39-35.4,16.83-34.23,45.25C1579.28,905.44,1606.75,918.66,1613.25,921.36Zm429.63-46.26h0Z"/><path class="cls-1" d="M2042.88,103.47c-1.93,46.64-47.71,62.34-47.71,62.34s-101.69-13.76-192.94-13.76-193,13.76-193,13.76-45.78-15.7-47.71-62.34c-1.89-45.9,47.71-62.38,47.71-62.38s78.07-24.65,193-24.65,192.94,24.65,192.94,24.65S2044.77,57.57,2042.88,103.47Z"/><path class="cls-12" d="M2042.84,98.43c-14.63-20.63-39.08-28.76-39.08-28.76s-81.53-25.73-201.53-25.73S1600.7,69.67,1600.7,69.67s-24.46,8.13-39.09,28.76c1.73-42.08,47.67-57.32,47.67-57.32s78.09-24.66,193-24.66,192.94,24.66,192.94,24.66S2041.11,56.35,2042.84,98.43Z"/><path class="cls-11" d="M2036.47,129.38c-13,26.75-41.3,36.45-41.3,36.45s-101.67-13.77-192.94-13.77-193,13.77-193,13.77-28.27-9.7-41.3-36.45c13.36-2.34,129.41-22.07,234.25-22.07S2023.11,127,2036.47,129.38Z"/><path class="cls-2" d="M1995.17,182.25a16.15,16.15,0,0,1-2.2-.15c-1-.13-101.7-13.61-190.74-13.61S1612.49,182,1611.48,182.1a16.32,16.32,0,0,1-7.53-.74c-2.3-.79-56.43-20-58.8-77.21-2.37-57.61,56.45-77.83,58.95-78.66C1607.62,24.38,1686.15,0,1802.23,0s194.61,24.38,197.89,25.41c2.74.91,61.55,21.13,59.19,78.74h0c-2.37,57.21-56.5,76.42-58.81,77.21A16.42,16.42,0,0,1,1995.17,182.25ZM1802.23,32.88c-111.06,0-187.24,23.65-188,23.89-1.24.42-37.58,13.29-36.23,46,1.18,28.7,24.8,42.16,33.46,46.15,20.73-2.66,109.08-13.33,190.77-13.33s170,10.67,190.75,13.33c8.7-4,32.29-17.46,33.48-46.16,1.36-33.14-36.09-46-36.47-46.1S1912.89,32.88,1802.23,32.88Zm240.65,70.59h0Z"/><path class="cls-1" d="M2142.55,2238.75a8.16,8.16,0,0,1-5.76-2.37c-3.53-3.47-84.81-88.38,41.55-383.93a8.22,8.22,0,0,1,15.78,3.47c-.07,2.44-7,244.77-10.44,303.63-3.74,63.85-36.61,78-38,78.59A8.2,8.2,0,0,1,2142.55,2238.75Z"/><path class="cls-2" d="M2185.91,1855.69s-7,244-10.44,303.38-32.91,71.46-32.91,71.46-82.27-81.06,43.35-374.84m0-16.44a16.46,16.46,0,0,0-15.11,10c-53.17,124.35-76.73,227.12-70.05,305.46,5.24,61.26,27.73,85.05,30.28,87.56a16.44,16.44,0,0,0,11.54,4.73,16.27,16.27,0,0,0,6.22-1.23c4-1.63,39.14-17.92,43.1-85.71,3.45-59,10.17-293.9,10.46-303.88a16.43,16.43,0,0,0-16.44-16.9Zm0,32.87h0Z"/><path class="cls-14" d="M2178.49,1889.55c-11.55,53.27-19.88,107.22-23.51,161.6-3.47,54.41-2.44,109.13-9,163.36,3.12-54.56,1.61-109.06,4.93-163.64,4-54.5,12.89-108.67,27.56-161.32Z"/><path class="cls-11" d="M2216.68,2137.79a8.24,8.24,0,0,1-7.24-4.32c-2.34-4.35-55-109.43,152.7-354.7a8.22,8.22,0,0,1,14.06,8c-.79,2.31-78.72,231.88-99.33,287.11-22.36,59.92-57.95,63.79-59.45,63.93Z"/><path class="cls-2" d="M2368.41,1784.08S2290,2015.2,2269.16,2071s-52.48,58.61-52.48,58.61-54.77-101.68,151.73-345.49m0-16.44a16.46,16.46,0,0,0-12.55,5.81c-87.4,103.2-140.17,194.48-156.83,271.32-13,60.1,1.47,89.45,3.16,92.6a16.46,16.46,0,0,0,14.47,8.64,14.8,14.8,0,0,0,1.48-.07c4.3-.38,42.68-5.61,66.42-69.23,20.65-55.36,96.2-277.9,99.41-287.35a16.43,16.43,0,0,0-15.56-21.72Zm0,32.88h0Z"/><path class="cls-14" d="M2346.92,1819.67c-23,48.94-49.37,96.36-71.71,145.56-22.58,49.21-35.87,101.88-48.25,154.43,9.47-53.29,22.24-106.53,44.57-156.06,22.53-49.37,49.29-96.44,75.39-143.93Z"/><path class="cls-12" d="M2322.87,2108.73c-18.26,0-28.51-7.08-29.62-7.89a8.22,8.22,0,0,1-2.92-9.34c2.08-6,53.79-146.79,298.36-146.79,11.2,0,22.79.3,34.46.91a8.22,8.22,0,0,1,1.83,16.11c-1,.28-99.72,29-244.64,126.64C2360.28,2101.88,2341,2108.73,2322.87,2108.73Z"/><path class="cls-2" d="M2588.69,1952.93c11,0,22.28.29,34,.89,0,0-99,28.11-247,127.74-22,14.84-39.88,19-52.88,19-16.11,0-24.78-6.32-24.78-6.32s49.07-141.25,290.6-141.26m0-16.44h0c-129.68,0-205.57,40.48-246.39,74.44-45.45,37.8-59.18,76.25-59.74,77.87a16.44,16.44,0,0,0,5.85,18.68c2.17,1.58,14,9.47,34.46,9.47,19.75,0,40.63-7.32,62.06-21.76,143.59-96.69,241.33-125.28,242.3-125.56a16.44,16.44,0,0,0-3.65-32.22c-11.81-.61-23.54-.92-34.85-.92Z"/><path class="cls-14" d="M2590.51,1958.45c-49.69,14.42-101,25.18-148.09,47-47,22-89.73,52-131.35,82.84,39.85-33.42,82.56-64,129.63-86.52,47.57-21.76,99.06-32.12,149.81-43.32Z"/><path class="cls-11" d="M2585,2324.47a8.25,8.25,0,0,1-4.65-1.44c-1.28-.88-129.52-88.18-251-116.75-22.83-5.36-38.77-15.39-47.38-29.8a47.87,47.87,0,0,1-5.65-34.6,8.16,8.16,0,0,1,3.06-4.48c1.08-.8,26.88-19.43,69.54-19.43,57.06,0,145.54,33.66,243.1,194a8.22,8.22,0,0,1-7,12.49Z"/><path class="cls-2" d="M2348.94,2126.19c55.2,0,140.63,33.17,236.08,190.06,0,0-129.31-88.7-253.77-118-57.93-13.62-47-54.26-47-54.26s24.22-17.82,64.67-17.83m0-16.44v0h0c-45.33,0-73.24,20.17-74.41,21a16.39,16.39,0,0,0-6.13,9,55.71,55.71,0,0,0,6.54,41c9.79,16.4,27.47,27.7,52.56,33.59,119.91,28.2,246.95,114.66,248.22,115.53a16.44,16.44,0,0,0,23.34-22.1c-99.54-163.61-190.95-198-250.11-198Z"/><path class="cls-14" d="M2562.11,2295.16c-86-85.2-151.51-118.64-269.34-144.51,114.58,18.39,191.75,57.6,269.34,144.51Z"/><path class="cls-15" d="M400.63,1528.73A191.14,191.14,0,0,0,356,1414.47c-68.12-81.29-189.24-92-270.52-23.84s-92,189.24-23.84,270.53,189.24,91.95,270.53,23.83a191.19,191.19,0,0,0,51.24-67.15l84.76-33.32Z"/><g class="cls-9"><path class="cls-6" d="M109.21,1418.94c75.93-63.64,186.61-58.49,256.39,8.72a194.84,194.84,0,0,0-12.29-16.42c-68.13-81.29-189.24-92-270.53-23.84s-92,189.24-23.84,270.53A195.72,195.72,0,0,0,73,1673C19,1592.52,33.25,1482.59,109.21,1418.94Z"/></g><path class="cls-2" d="M209,1746.64A208.52,208.52,0,0,1,48.71,1672c-74-88.3-62.36-220.33,25.93-294.32S295,1315.33,369,1403.62A206.94,206.94,0,0,1,417,1520.35l61.92,51.14a16.89,16.89,0,0,1-4.57,28.75l-78.57,30.89A208.82,208.82,0,0,1,209,1746.64Zm-.31-383.89a174.34,174.34,0,0,0-112.35,40.83c-74,62-83.77,172.71-21.74,246.73a175.18,175.18,0,0,0,293.46-39.5,16.91,16.91,0,0,1,9.18-8.69l58.08-22.83-45.45-37.53a16.92,16.92,0,0,1-6.12-12.24,175,175,0,0,0-175.06-166.77Z"/><g class="cls-5"><path class="cls-2" d="M400.48,1526.6A221.83,221.83,0,0,1,44.34,1636.93a193.78,193.78,0,0,0,17.31,24.23c68.12,81.28,189.24,91.95,270.53,23.83a191.19,191.19,0,0,0,51.24-67.15l84.76-33.32-67.55-55.79C400.59,1528,400.52,1527.31,400.48,1526.6Z"/></g><path class="cls-6" d="M271.89,1483.19h0c-16.62-16.62-43.56-13.64-60.18,3l-2.59,2.58-2.58-2.58c-16.62-16.62-43.56-19.6-60.18-3h0a42.55,42.55,0,0,0,0,60.18l2.58,2.59,52.25,52.25a11.23,11.23,0,0,0,15.87,0L269.31,1546l2.58-2.59A42.55,42.55,0,0,0,271.89,1483.19Z"/></g></g></svg>